<svg width="353" height="287" viewBox="0 0 353 287" fill="none" xmlns="http://www.w3.org/2000/svg">
<g filter="url(#filter0_d_3224_713)">
<rect x="48" width="301" height="174" rx="8" fill="#EEEAEA"/>
</g>
<mask id="mask0_3224_713" style="mask-type:alpha" maskUnits="userSpaceOnUse" x="0" y="61" width="302" height="113">
<path d="M302 174C302 159.161 298.094 144.467 290.506 130.757C282.917 117.047 271.795 104.59 257.773 94.0969C243.751 83.6039 227.105 75.2804 208.785 69.6016C190.465 63.9228 170.83 61 151 61C131.17 61 111.535 63.9228 93.2148 69.6016C74.8946 75.2804 58.2485 83.6039 44.2269 94.0969C30.2052 104.59 19.0826 117.047 11.4942 130.757C3.90573 144.467 -1.73356e-06 159.161 0 174L151 174H302Z" fill="#D9D9D9"/>
</mask>
<g mask="url(#mask0_3224_713)">
<rect x="50" y="44" width="283" height="130" rx="8" fill="url(#paint0_radial_3224_713)"/>
</g>
<defs>
<filter id="filter0_d_3224_713" x="44" y="0" width="309" height="182" filterUnits="userSpaceOnUse" color-interpolation-filters="sRGB">
<feFlood flood-opacity="0" result="BackgroundImageFix"/>
<feColorMatrix in="SourceAlpha" type="matrix" values="0 0 0 0 0 0 0 0 0 0 0 0 0 0 0 0 0 0 127 0" result="hardAlpha"/>
<feOffset dy="4"/>
<feGaussianBlur stdDeviation="2"/>
<feComposite in2="hardAlpha" operator="out"/>
<feColorMatrix type="matrix" values="0 0 0 0 0 0 0 0 0 0 0 0 0 0 0 0 0 0 0.25 0"/>
<feBlend mode="normal" in2="BackgroundImageFix" result="effect1_dropShadow_3224_713"/>
<feBlend mode="normal" in="SourceGraphic" in2="effect1_dropShadow_3224_713" result="shape"/>
</filter>
<radialGradient id="paint0_radial_3224_713" cx="0" cy="0" r="1" gradientUnits="userSpaceOnUse" gradientTransform="translate(81 168.5) rotate(-22.4195) scale(197.963 430.95)">
<stop stop-color="#D9D9D9"/>
<stop offset="1" stop-color="#D9D9D9" stop-opacity="0"/>
</radialGradient>
</defs>
</svg>
